[center][img]http://img27.imageshack.us/img27/7743/wfx9jbwt.jpg[/img][/center]

[center][img]http://leetleech.org/images/48874973695367351744.png[/img][/center]

[center]Format                           : AVI
Format/Info                      : Audio Video Interleave
File size                        : 1.10 GiB
Duration                         : 1h 48mn
Overall bit rate                 : 1 450 Kbps
Writing library                  : VirtualDub build 32839/release

Video
ID                               : 0
Format                           : MPEG-4 Visual
Format profile                   : Advanced Simple@L5
Format settings, BVOP            : Yes
Format settings, QPel            : No
Format settings, GMC             : No warppoints
Format settings, Matrix          : Custom
Codec ID                         : XVID
Codec ID/Hint                    : XviD
Duration                         : 1h 48mn
Bit rate                         : 1 312 Kbps
Width                            : 692 pixels
Height                           : 294 pixels
Display aspect ratio             : 2.35:1
Frame rate                       : 23.976 fps
Color space                      : YUV
Chroma subsampling               : 4:2:0
Bit depth                        : 8 bits
Scan type                        : Progressive
Bits/(Pixel*Frame)               : 0.269
Stream size                      : 1 016 MiB (91%)
Writing library                  : XviD 1.2.1 (UTC 2008-12-04)

Audio
ID                               : 1
Format                           : MPEG Audio
Format version                   : Version 1
Format profile                   : Layer 3
Codec ID                         : 55
Codec ID/Hint                    : MP3
Duration                         : 1h 48mn
Bit rate mode                    : Constant
Bit rate                         : 128 Kbps
Channel(s)                       : 2 channels
Sampling rate                    : 44.1 KHz
Stream size                      : 99.1 MiB (9%)
Alignment                        : Split accross interleaves
Interleave, duration             : 42 ms (1.00 video frame)
Interleave, preload duration     : 500 ms
Writing library                  : LAME3.98.4

[/center]


[center][url]http://www.imdb.com/title/tt1242432/[/url][/center]



[center]Users: 6.5/10 (485 votes) 19 reviews | Critics: 51 reviews Metascore: 27/100 (based on 14 reviews from Metacritic.com)

A writer who is brutalized during her cabin retreat seeks revenge on her attackers, who left her for dead.
Director:
Steven R. Monroe
Writers:
Meir Zarchi (1978 screenplays), Stuart Morse (screenplay)
Stars:
Daniel Franzese, Sarah Butler and Chad Lindberg [/center]


[center][img]http://leetleech.org/images/95521316153253938506.png[/img][/center]




[center][img]http://img684.imageshack.us/img684/1374/vlcsnap2011012011h58m21.png[/img][/center]

[center][img]http://img248.imageshack.us/img248/7622/vlcsnap2011012011h58m12.png[/img][/center]

[center][img]http://img412.imageshack.us/img412/9196/vlcsnap2011012011h58m56.png[/img][/center]



[center]Not one i was going to do but been asked so many times for a single avi rip so here it is ...Went from the AC3 audio to mp3 and from the original 640x272 to 692x294 .Enjoy if its as good as the original ,lets hope so [/center]


[center]Greetz to Imagine ,Flawl3ss ,Santi ,Vision ,Kingdom,BDK,DiGiTALiNK,LEGION,Classified,THC,WBZ,Rx ,Feel Free and to all who share[/center]


[center][img]http://signatures.mylivesignature.com/54488/364/63C91F8D3F952BFA8B83650965539EC2.png[/img][/center]

